<?xml version="1.0" encoding="UTF-8" standalone="no"?>
<!-- Created with Inkscape (http://www.inkscape.org/) -->

<svg
   width="500mm"
   height="500mm"
   viewBox="0 0 500 500"
   version="1.1"
   id="svg1"
   xml:space="preserve"
   sodipodi:docname="ae.svg"
   inkscape:version="1.4.2 (f4327f4, 2025-05-13)"
   inkscape:export-filename="Projects\ae-architect\public\ae.png"
   inkscape:export-xdpi="96"
   inkscape:export-ydpi="96"
   xmlns:inkscape="http://www.inkscape.org/namespaces/inkscape"
   xmlns:sodipodi="http://sodipodi.sourceforge.net/DTD/sodipodi-0.dtd"
   xmlns="http://www.w3.org/2000/svg"
   xmlns:svg="http://www.w3.org/2000/svg"><sodipodi:namedview
     id="namedview1"
     pagecolor="#ffffff"
     bordercolor="#000000"
     borderopacity="0.25"
     inkscape:showpageshadow="2"
     inkscape:pageopacity="0.0"
     inkscape:pagecheckerboard="0"
     inkscape:deskcolor="#d1d1d1"
     inkscape:document-units="px"
     inkscape:zoom="0.15842694"
     inkscape:cx="170.42556"
     inkscape:cy="1101.4541"
     inkscape:window-width="1366"
     inkscape:window-height="705"
     inkscape:window-x="-8"
     inkscape:window-y="-8"
     inkscape:window-maximized="1"
     inkscape:current-layer="layer1"><inkscape:page
       x="0"
       y="0"
       width="500"
       height="500"
       id="page2"
       margin="0"
       bleed="0" /></sodipodi:namedview><defs
     id="defs1" /><path
     id="path1"
     style="display:inline;fill:#ffffff;stroke-width:0.264582"
     d="M 250.00025,1.2878232e-8 A 250.00006,250.00002 0 0 0 -3.0626467e-5,250.00025 250.00006,250.00002 0 0 0 250.00025,499.99998 250.00006,250.00002 0 0 0 500.00001,250.00025 250.00006,250.00002 0 0 0 250.00025,1.2878232e-8 Z"
     inkscape:label="Circle" /><g
     inkscape:label="Layer 1"
     inkscape:groupmode="layer"
     id="layer1"
     style="display:inline"><g
       id="g5"
       inkscape:label="A"
       transform="matrix(1.2506376,0,0,1.2506376,-62.659386,-62.659386)"><path
         style="fill:#5f0000;fill-opacity:1;stroke-width:0.264583"
         d="m 129.9006,352.17506 h 24.7992 l 87.76284,-152.0097 v -43.37981 z"
         id="path5"
         sodipodi:nodetypes="ccccc" /><path
         id="path3"
         style="display:inline;fill:#7d0100;fill-opacity:1;stroke-width:0.264583"
         d="M 250.00025,106.2824 108.03372,352.17489 h 27.77143 L 241.85294,168.49463 v 87.33885 h -27.88925 l -1.69447,2.93419 h 29.59199 v 24.39644 l 7.8636,-13.62035 V 154.86032 Z" /></g><g
       id="g8"
       inkscape:label="E"
       transform="matrix(1.2506376,0,0,1.2506376,-62.659386,-62.659386)"><path
         id="path8"
         style="display:inline;fill:#3f4752;fill-opacity:1;stroke-width:0.345664"
         d="M 351.79972,148.84105 234.42084,352.17489 h 3.42511 17.36897 51.19997 v -4.80126 h -48.42805 l 93.81288,-162.48879 z" /><path
         id="path4-5"
         style="display:inline;fill:#282b32;fill-opacity:1;stroke-width:0.264583"
         d="M 352.04053,106.2824 210.07452,352.17489 h 27.77143 L 351.76561,154.86032 Z m -0.24081,48.57792 -7.87187,13.60744 v 87.36572 h -27.88926 l -1.69447,2.93419 h 25.60619 3.98581 7.8636 z" /></g></g></svg>
