<?xml version="1.0" encoding="UTF-8" standalone="no"?>
<!-- Created with Inkscape (http://www.inkscape.org/) -->

<svg
   width="210mm"
   height="31mm"
   viewBox="0 0 210 31"
   version="1.1"
   id="svg1"
   xml:space="preserve"
   inkscape:version="1.4.2 (f4327f4, 2025-05-13)"
   sodipodi:docname="aetext.svg"
   inkscape:export-filename="aetex-palint.svg"
   inkscape:export-xdpi="96"
   inkscape:export-ydpi="96"
   xmlns:inkscape="http://www.inkscape.org/namespaces/inkscape"
   xmlns:sodipodi="http://sodipodi.sourceforge.net/DTD/sodipodi-0.dtd"
   xmlns="http://www.w3.org/2000/svg"
   xmlns:svg="http://www.w3.org/2000/svg"><sodipodi:namedview
     id="namedview1"
     pagecolor="#ffffff"
     bordercolor="#000000"
     borderopacity="0.25"
     inkscape:showpageshadow="2"
     inkscape:pageopacity="0.0"
     inkscape:pagecheckerboard="0"
     inkscape:deskcolor="#d1d1d1"
     inkscape:document-units="px"
     inkscape:clip-to-page="true"
     inkscape:zoom="0.89619809"
     inkscape:cx="350.92688"
     inkscape:cy="66.391572"
     inkscape:window-width="1366"
     inkscape:window-height="705"
     inkscape:window-x="-8"
     inkscape:window-y="-8"
     inkscape:window-maximized="1"
     inkscape:current-layer="g10"
     inkscape:lockguides="true"
     showgrid="false"><inkscape:page
       x="0"
       y="0"
       width="210"
       height="31"
       id="page2"
       margin="0"
       bleed="0" /><inkscape:grid
       id="grid1"
       units="px"
       originx="0"
       originy="0"
       spacingx="0.26458333"
       spacingy="0.26458334"
       empcolor="#0099e5"
       empopacity="0.30196078"
       color="#0099e5"
       opacity="0.14901961"
       empspacing="5"
       enabled="true"
       visible="false" /></sodipodi:namedview><defs
     id="defs1" /><g
     id="g12"
     transform="matrix(1.6593575,0,0,1.6593573,-131.33075,-62.181747)"><g
       id="g1"
       transform="matrix(0.04677917,0,0,0.04677917,72.117377,35.119566)"
       style="display:inline"
       inkscape:label="logo"><g
         inkscape:label="Layer 1"
         id="layer1-8"
         style="display:inline"
         transform="translate(104.45307,25.977307)"><g
           id="g5"
           inkscape:label="A"
           transform="matrix(1.2506376,0,0,1.2506376,-62.659386,-62.659386)"><path
             style="fill:#5f0000;fill-opacity:1;stroke-width:0.264583"
             d="m 129.9006,352.17506 h 24.7992 l 87.76284,-152.0097 v -43.37981 z"
             id="path5"
             sodipodi:nodetypes="ccccc" /><path
             id="path3"
             style="display:inline;fill:#7d0100;fill-opacity:1;stroke-width:0.264583"
             d="M 250.00025,106.2824 108.03372,352.17489 h 27.77143 L 241.85294,168.49463 v 87.33885 h -27.88925 l -1.69447,2.93419 h 29.59199 v 24.39644 l 7.8636,-13.62035 V 154.86032 Z" /></g><g
           id="g8"
           inkscape:label="E"
           transform="matrix(1.2506376,0,0,1.2506376,-62.659386,-62.659386)"><path
             id="path8"
             style="display:inline;fill:#3f4752;fill-opacity:1;stroke-width:0.345664"
             d="M 351.79972,148.84105 234.42084,352.17489 h 3.42511 17.36897 51.19997 v -4.80126 h -48.42805 l 93.81288,-162.48879 z" /><path
             id="path4-5"
             style="display:inline;fill:#282b32;fill-opacity:1;stroke-width:0.264583"
             d="M 352.04053,106.2824 210.07452,352.17489 h 27.77143 L 351.76561,154.86032 Z m -0.24081,48.57792 -7.87187,13.60744 v 87.36572 h -27.88926 l -1.69447,2.93419 h 25.60619 3.98581 7.8636 z" /></g></g></g><g
       id="g2"
       transform="matrix(0.99393799,0,0,0.93115469,23.421786,4.8054252)"
       style="display:inline"
       inkscape:label="name"><path
         style="font-weight:bold;font-size:4.32679px;font-family:Montserrat;-inkscape-font-specification:'Montserrat Bold';letter-spacing:-0.032451px;stroke-width:0.360567"
         d="m 145.67053,39.887687 -1.761,-1.635526 q -0.15144,-0.138458 -0.2423,-0.259608 -0.0909,-0.12115 -0.13413,-0.237973 -0.0389,-0.116823 -0.0389,-0.2423 0,-0.220667 0.11682,-0.389411 0.11682,-0.168745 0.32884,-0.259608 0.21201,-0.09519 0.49758,-0.09519 0.26393,0 0.45431,0.08654 0.19471,0.08221 0.30288,0.237973 0.11249,0.155765 0.11249,0.372104 0,0.190379 -0.0952,0.35047 -0.0952,0.155764 -0.29854,0.294222 -0.19904,0.138457 -0.52355,0.281241 -0.22066,0.09952 -0.35047,0.194706 -0.12547,0.09086 -0.18172,0.186052 -0.0563,0.09519 -0.0563,0.212012 0,0.10817 0.0649,0.194706 0.0692,0.08654 0.19038,0.13413 0.12115,0.0476 0.28557,0.0476 0.26393,0 0.4846,-0.12115 0.22067,-0.125477 0.3721,-0.367777 0.15577,-0.246627 0.22067,-0.597097 l 0.54085,0.168745 q -0.0909,0.441332 -0.32451,0.765841 -0.23365,0.32451 -0.57546,0.501908 -0.34182,0.177398 -0.76585,0.177398 -0.33316,0 -0.59277,-0.108169 -0.2596,-0.10817 -0.41104,-0.294222 -0.15144,-0.186052 -0.15144,-0.428352 0,-0.224993 0.0995,-0.402392 0.0995,-0.181725 0.31585,-0.337489 0.21634,-0.160092 0.54951,-0.311529 0.2423,-0.112497 0.38075,-0.199033 0.13846,-0.08653 0.19471,-0.164418 0.0563,-0.08221 0.0563,-0.164418 0,-0.112496 -0.0779,-0.181725 -0.0736,-0.06923 -0.22066,-0.06923 -0.15577,0 -0.2423,0.07788 -0.0865,0.07788 -0.0865,0.199032 0,0.0649 0.026,0.129804 0.026,0.06058 0.0995,0.142784 0.0736,0.07788 0.20768,0.203359 l 1.59659,1.479762 z"
         id="text7"
         inkscape:label="&amp;"
         transform="scale(0.90037095,1.1106534)"
         aria-label="&amp;" /><g
         id="g9"
         transform="matrix(2.4816165,0,0,2.6755472,-149.31968,-72.182678)"
         inkscape:label="architects"><path
           d="m 90.577153,44.000046 0.9906,-2.2225 h 0.508 l 0.993775,2.2225 h -0.53975 l -0.8128,-1.96215 h 0.2032 l -0.815975,1.96215 z m 0.4953,-0.47625 0.136525,-0.390525 h 1.143 l 0.1397,0.390525 z"
           id="text5"
           style="font-weight:bold;font-size:3.175px;font-family:Montserrat;-inkscape-font-specification:'Montserrat Bold';letter-spacing:-0.0238125px;white-space:pre;fill:#7d0100;stroke-width:0.264583"
           aria-label="A" /><path
           style="font-weight:bold;font-size:3.175px;font-family:Montserrat;-inkscape-font-specification:'Montserrat Bold';letter-spacing:-0.0238125px;stroke-width:0.264583"
           d="m 93.334585,44.000046 v -2.2225 h 0.949325 q 0.46355,0 0.720725,0.2159 0.257175,0.212725 0.257175,0.59055 0,0.24765 -0.117475,0.428625 -0.117475,0.1778 -0.333375,0.27305 -0.2159,0.09525 -0.51435,0.09525 h -0.676275 l 0.2286,-0.225425 v 0.84455 z m 1.412875,0 -0.555625,-0.80645 h 0.549275 l 0.561975,0.80645 z m -0.898525,-0.7874 -0.2286,-0.2413 h 0.6477 q 0.238125,0 0.3556,-0.1016 0.117475,-0.104775 0.117475,-0.28575 0,-0.18415 -0.117475,-0.28575 -0.117475,-0.1016 -0.3556,-0.1016 h -0.6477 l 0.2286,-0.244475 z m 2.85909,0.8255 q -0.257175,0 -0.479425,-0.08255 -0.219075,-0.08572 -0.381,-0.2413 -0.161925,-0.155575 -0.254,-0.365125 -0.0889,-0.20955 -0.0889,-0.460375 0,-0.250825 0.0889,-0.460375 0.09208,-0.20955 0.254,-0.365125 0.1651,-0.155575 0.384175,-0.238125 0.219075,-0.08572 0.479425,-0.08572 0.288925,0 0.5207,0.1016 0.23495,0.09842 0.3937,0.2921 l -0.3302,0.3048 q -0.1143,-0.130175 -0.254,-0.193675 -0.1397,-0.06667 -0.3048,-0.06667 -0.155575,0 -0.28575,0.0508 -0.130175,0.0508 -0.225425,0.14605 -0.09525,0.09525 -0.149225,0.225425 -0.0508,0.130175 -0.0508,0.288925 0,0.15875 0.0508,0.288925 0.05397,0.130175 0.149225,0.225425 0.09525,0.09525 0.225425,0.14605 0.130175,0.0508 0.28575,0.0508 0.1651,0 0.3048,-0.0635 0.1397,-0.06667 0.254,-0.200025 l 0.3302,0.3048 q -0.15875,0.193675 -0.3937,0.295275 -0.231775,0.1016 -0.523875,0.1016 z m 2.735265,-0.0381 v -2.2225 h 0.51435 v 2.2225 z m -1.524,0 v -2.2225 h 0.51435 v 2.2225 z m 0.47625,-0.911225 v -0.434975 h 1.08585 v 0.434975 z m 2.06534,0.911225 v -2.2225 h 0.51435 v 2.2225 z m 1.47796,0 v -1.8034 h -0.7112 v -0.4191 h 1.93675 v 0.4191 h -0.7112 v 1.8034 z m 1.47796,0 v -2.2225 h 1.67958 v 0.41275 h -1.1684 v 1.397 h 1.20967 v 0.41275 z m 0.47308,-0.9271 v -0.40005 h 1.06997 v 0.40005 z m 2.69716,0.9652 q -0.25718,0 -0.47943,-0.08255 -0.21907,-0.08572 -0.381,-0.2413 -0.16192,-0.155575 -0.254,-0.365125 -0.0889,-0.20955 -0.0889,-0.460375 0,-0.250825 0.0889,-0.460375 0.0921,-0.20955 0.254,-0.365125 0.1651,-0.155575 0.38418,-0.238125 0.21907,-0.08572 0.47942,-0.08572 0.28893,0 0.5207,0.1016 0.23495,0.09842 0.3937,0.2921 l -0.3302,0.3048 q -0.1143,-0.130175 -0.254,-0.193675 -0.1397,-0.06667 -0.3048,-0.06667 -0.15557,0 -0.28575,0.0508 -0.13017,0.0508 -0.22542,0.14605 -0.0952,0.09525 -0.14923,0.225425 -0.0508,0.130175 -0.0508,0.288925 0,0.15875 0.0508,0.288925 0.054,0.130175 0.14923,0.225425 0.0953,0.09525 0.22542,0.14605 0.13018,0.0508 0.28575,0.0508 0.1651,0 0.3048,-0.0635 0.1397,-0.06667 0.254,-0.200025 l 0.3302,0.3048 q -0.15875,0.193675 -0.3937,0.295275 -0.23177,0.1016 -0.52387,0.1016 z m 1.63087,-0.0381 v -1.8034 h -0.7112 v -0.4191 h 1.93675 v 0.4191 h -0.7112 v 1.8034 z m 2.1929,0.0381 q -0.2667,0 -0.51118,-0.06985 -0.24447,-0.07303 -0.3937,-0.187325 l 0.17463,-0.38735 q 0.14287,0.1016 0.33655,0.168275 0.19685,0.0635 0.39687,0.0635 0.1524,0 0.24448,-0.02858 0.0952,-0.03175 0.1397,-0.08572 0.0444,-0.05398 0.0444,-0.123825 0,-0.0889 -0.0698,-0.1397 -0.0699,-0.05398 -0.18415,-0.08573 -0.1143,-0.03492 -0.254,-0.0635 -0.13653,-0.03175 -0.27623,-0.0762 -0.13652,-0.04445 -0.25082,-0.1143 -0.1143,-0.06985 -0.18733,-0.18415 -0.0699,-0.1143 -0.0699,-0.2921 0,-0.1905 0.1016,-0.346075 0.10478,-0.15875 0.31115,-0.250825 0.20955,-0.09525 0.52388,-0.09525 0.20955,0 0.41275,0.0508 0.2032,0.04762 0.35877,0.14605 l -0.15875,0.390525 q -0.15557,-0.0889 -0.31115,-0.130175 -0.15557,-0.04445 -0.3048,-0.04445 -0.14922,0 -0.24447,0.03492 -0.0953,0.03493 -0.13653,0.09208 -0.0413,0.05398 -0.0413,0.127 0,0.08572 0.0699,0.1397 0.0699,0.0508 0.18415,0.08255 0.1143,0.03175 0.25082,0.0635 0.1397,0.03175 0.27623,0.07303 0.1397,0.04127 0.254,0.111125 0.1143,0.06985 0.18415,0.18415 0.073,0.1143 0.073,0.288925 0,0.187325 -0.10477,0.3429 -0.10478,0.155575 -0.31433,0.250825 -0.20637,0.09525 -0.52387,0.09525 z"
           id="text6"
           aria-label="RCHITECTS" /></g><g
         id="g10"
         transform="matrix(2.5183522,0,0,2.6725229,-92.147381,-112.58704)"
         inkscape:label="engineers"><path
           style="font-weight:bold;font-size:3.175px;font-family:Montserrat;-inkscape-font-specification:'Montserrat Bold';letter-spacing:-0.0238125px;fill:#3f4752;stroke-width:0.264583"
           d="m 89.541426,59.167263 v -2.2225 h 1.679575 v 0.41275 h -1.1684 v 1.397 h 1.209675 v 0.41275 z m 0.473075,-0.9271 v -0.40005 h 1.069975 v 0.40005 z"
           id="text8"
           aria-label="E" /><path
           style="font-weight:bold;font-size:3.175px;font-family:Montserrat;-inkscape-font-specification:'Montserrat Bold';letter-spacing:-0.0238125px;stroke-width:0.264583"
           d="m 91.542768,59.165714 v -2.2225 h 0.42545 l 1.311275,1.6002 h -0.206375 v -1.6002 h 0.508 v 2.2225 h -0.422275 l -1.31445,-1.6002 h 0.206375 v 1.6002 z m 3.61474,0.0381 q -0.263525,0 -0.485775,-0.08255 -0.219075,-0.08572 -0.384175,-0.2413 -0.161925,-0.155575 -0.254,-0.365125 -0.0889,-0.20955 -0.0889,-0.460375 0,-0.250825 0.0889,-0.460375 0.09207,-0.20955 0.257175,-0.365125 0.1651,-0.155575 0.38735,-0.238125 0.22225,-0.08573 0.48895,-0.08573 0.295275,0 0.530225,0.09843 0.238125,0.09842 0.40005,0.28575 l -0.3302,0.3048 q -0.12065,-0.127 -0.263525,-0.187325 -0.142875,-0.0635 -0.31115,-0.0635 -0.161925,0 -0.295275,0.0508 -0.13335,0.0508 -0.231775,0.14605 -0.09525,0.09525 -0.149225,0.225425 -0.0508,0.130175 -0.0508,0.288925 0,0.155575 0.0508,0.28575 0.05397,0.130175 0.149225,0.2286 0.09842,0.09525 0.2286,0.14605 0.13335,0.0508 0.2921,0.0508 0.1524,0 0.295275,-0.04763 0.14605,-0.0508 0.282575,-0.168275 l 0.2921,0.371475 q -0.180975,0.136525 -0.422275,0.20955 -0.238125,0.07303 -0.47625,0.07303 z m 0.898525,-0.282575 -0.4699,-0.06667 v -0.835025 h 0.4699 z m 0.452437,0.244475 v -2.2225 h 0.51435 v 2.2225 z m 1.017584,0 v -2.2225 h 0.42545 l 1.311275,1.6002 h -0.206375 v -1.6002 h 0.508 v 2.2225 h -0.422275 l -1.31445,-1.6002 h 0.206375 v 1.6002 z m 2.541586,0 v -2.2225 h 1.67958 v 0.41275 h -1.1684 v 1.397 h 1.20967 v 0.41275 z m 0.47308,-0.9271 v -0.40005 h 1.06997 v 0.40005 z m 1.63354,0.9271 v -2.2225 h 1.67957 v 0.41275 h -1.1684 v 1.397 h 1.20968 v 0.41275 z m 0.47307,-0.9271 v -0.40005 h 1.06998 v 0.40005 z m 1.63354,0.9271 v -2.2225 h 0.94932 q 0.46355,0 0.72073,0.2159 0.25717,0.212725 0.25717,0.59055 0,0.24765 -0.11747,0.428625 -0.11748,0.1778 -0.33338,0.27305 -0.2159,0.09525 -0.51435,0.09525 h -0.67627 l 0.2286,-0.225425 v 0.84455 z m 1.41287,0 -0.55562,-0.80645 h 0.54927 l 0.56198,0.80645 z m -0.89852,-0.7874 -0.2286,-0.2413 h 0.6477 q 0.23812,0 0.3556,-0.1016 0.11747,-0.104775 0.11747,-0.28575 0,-0.18415 -0.11747,-0.28575 -0.11748,-0.1016 -0.3556,-0.1016 h -0.6477 l 0.2286,-0.244475 z m 2.52571,0.8255 q -0.2667,0 -0.51117,-0.06985 -0.24448,-0.07303 -0.3937,-0.187325 l 0.17462,-0.38735 q 0.14288,0.1016 0.33655,0.168275 0.19685,0.0635 0.39688,0.0635 0.1524,0 0.24447,-0.02857 0.0953,-0.03175 0.1397,-0.08573 0.0444,-0.05398 0.0444,-0.123825 0,-0.0889 -0.0699,-0.1397 -0.0699,-0.05397 -0.18415,-0.08572 -0.1143,-0.03493 -0.254,-0.0635 -0.13652,-0.03175 -0.27622,-0.0762 -0.13653,-0.04445 -0.25083,-0.1143 -0.1143,-0.06985 -0.18732,-0.18415 -0.0699,-0.1143 -0.0699,-0.2921 0,-0.1905 0.1016,-0.346075 0.10477,-0.15875 0.31115,-0.250825 0.20955,-0.09525 0.52387,-0.09525 0.20955,0 0.41275,0.0508 0.2032,0.04763 0.35878,0.14605 l -0.15875,0.390525 q -0.15558,-0.0889 -0.31115,-0.130175 -0.15558,-0.04445 -0.3048,-0.04445 -0.14923,0 -0.24448,0.03493 -0.0952,0.03493 -0.13652,0.09208 -0.0413,0.05397 -0.0413,0.127 0,0.08573 0.0698,0.1397 0.0699,0.0508 0.18415,0.08255 0.1143,0.03175 0.25083,0.0635 0.1397,0.03175 0.27622,0.07303 0.1397,0.04127 0.254,0.111125 0.1143,0.06985 0.18415,0.18415 0.073,0.1143 0.073,0.288925 0,0.187325 -0.10478,0.3429 -0.10477,0.155575 -0.31432,0.250825 -0.20638,0.09525 -0.52388,0.09525 z"
           id="text9"
           aria-label="NGINEERS" /></g></g><g
       id="g11"
       transform="translate(0.41751633)"
       inkscape:label="slogan"><path
         d="m 96.396658,51.250599 v -2.2225 h 1.00965 q 0.36195,0 0.638175,0.1397 0.276225,0.136525 0.4318,0.384175 0.155575,0.24765 0.155575,0.587375 0,0.33655 -0.155575,0.587375 -0.155575,0.24765 -0.4318,0.38735 -0.276225,0.136525 -0.638175,0.136525 z m 0.51435,-0.422275 h 0.4699 q 0.22225,0 0.384175,-0.08255 0.1651,-0.08572 0.254,-0.2413 0.09208,-0.155575 0.09208,-0.365125 0,-0.212725 -0.09208,-0.365125 -0.0889,-0.155575 -0.254,-0.238125 -0.161925,-0.08573 -0.384175,-0.08573 h -0.4699 z m 4.708532,0.422275 v -2.2225 h 1.67958 v 0.41275 h -1.1684 v 1.397 h 1.20967 v 0.41275 z m 0.47308,-0.9271 v -0.40005 h 1.06997 v 0.40005 z m 4.11321,0.9652 q -0.2667,0 -0.51117,-0.06985 -0.24448,-0.07303 -0.3937,-0.187325 l 0.17462,-0.38735 q 0.14288,0.1016 0.33655,0.168275 0.19685,0.0635 0.39688,0.0635 0.1524,0 0.24447,-0.02857 0.0953,-0.03175 0.1397,-0.08573 0.0444,-0.05398 0.0444,-0.123825 0,-0.0889 -0.0699,-0.1397 -0.0699,-0.05397 -0.18415,-0.08572 -0.1143,-0.03493 -0.254,-0.0635 -0.13652,-0.03175 -0.27622,-0.0762 -0.13653,-0.04445 -0.25083,-0.1143 -0.1143,-0.06985 -0.18732,-0.18415 -0.0699,-0.1143 -0.0699,-0.2921 0,-0.1905 0.1016,-0.346075 0.10477,-0.15875 0.31115,-0.250825 0.20955,-0.09525 0.52387,-0.09525 0.20955,0 0.41275,0.0508 0.2032,0.04763 0.35878,0.14605 l -0.15875,0.390525 q -0.15558,-0.0889 -0.31115,-0.130175 -0.15558,-0.04445 -0.3048,-0.04445 -0.14923,0 -0.24448,0.03493 -0.0952,0.03493 -0.13652,0.09208 -0.0413,0.05397 -0.0413,0.127 0,0.08573 0.0699,0.1397 0.0699,0.0508 0.18415,0.08255 0.1143,0.03175 0.25083,0.0635 0.1397,0.03175 0.27622,0.07303 0.1397,0.04127 0.254,0.111125 0.1143,0.06985 0.18415,0.18415 0.073,0.1143 0.073,0.288925 0,0.187325 -0.10478,0.3429 -0.10477,0.155575 -0.31432,0.250825 -0.20638,0.09525 -0.52388,0.09525 z m 3.02102,-0.0381 v -2.2225 h 0.51435 v 2.2225 z m 4.71489,0.0381 q -0.26353,0 -0.48578,-0.08255 -0.21907,-0.08573 -0.38417,-0.2413 -0.16193,-0.155575 -0.254,-0.365125 -0.0889,-0.20955 -0.0889,-0.460375 0,-0.250825 0.0889,-0.460375 0.0921,-0.20955 0.25717,-0.365125 0.1651,-0.155575 0.38735,-0.238125 0.22225,-0.08573 0.48895,-0.08573 0.29528,0 0.53023,0.09843 0.23812,0.09842 0.40005,0.28575 l -0.3302,0.3048 q -0.12065,-0.127 -0.26353,-0.187325 -0.14287,-0.0635 -0.31115,-0.0635 -0.16192,0 -0.29527,0.0508 -0.13335,0.0508 -0.23178,0.14605 -0.0953,0.09525 -0.14922,0.225425 -0.0508,0.130175 -0.0508,0.288925 0,0.155575 0.0508,0.28575 0.054,0.130175 0.14922,0.2286 0.0984,0.09525 0.2286,0.14605 0.13335,0.0508 0.2921,0.0508 0.1524,0 0.29528,-0.04763 0.14605,-0.0508 0.28257,-0.168275 l 0.2921,0.371475 q -0.18097,0.136525 -0.42227,0.20955 -0.23813,0.07303 -0.47625,0.07303 z m 0.89852,-0.282575 -0.4699,-0.06667 v -0.835025 h 0.4699 z m 3.07658,0.244475 v -2.2225 h 0.42545 l 1.31128,1.6002 h -0.20638 v -1.6002 h 0.508 v 2.2225 h -0.42227 l -1.31445,-1.6002 h 0.20637 v 1.6002 z"
         id="text4"
         style="font-weight:bold;font-size:3.175px;font-family:Montserrat;-inkscape-font-specification:'Montserrat Bold';letter-spacing:-0.0238125px;fill:#1a1a1a;stroke-width:0.264583"
         aria-label="D   E  S  I   G   N" /><path
         d="m 127.60601,51.241074 v -2.2225 h 1.08585 q 0.4191,0 0.62865,0.15875 0.21272,0.15875 0.21272,0.4191 0,0.174625 -0.0857,0.3048 -0.0857,0.127 -0.23495,0.19685 -0.14923,0.06985 -0.3429,0.06985 l 0.0603,-0.130175 q 0.20955,0 0.37148,0.06985 0.16192,0.06667 0.25082,0.200025 0.0921,0.13335 0.0921,0.327025 0,0.28575 -0.22543,0.447675 -0.22542,0.15875 -0.66357,0.15875 z m 0.51117,-0.38735 h 0.60008 q 0.20002,0 0.30162,-0.0635 0.10478,-0.06668 0.10478,-0.20955 0,-0.1397 -0.10478,-0.206375 -0.1016,-0.06985 -0.30162,-0.06985 h -0.63818 v -0.37465 h 0.54928 q 0.18732,0 0.28575,-0.0635 0.1016,-0.06667 0.1016,-0.200025 0,-0.130175 -0.1016,-0.193675 -0.0984,-0.06668 -0.28575,-0.06668 h -0.51118 z m 4.63074,0.42545 q -0.47307,0 -0.73977,-0.263525 -0.2667,-0.263525 -0.2667,-0.752475 v -1.2446 h 0.51435 v 1.22555 q 0,0.3175 0.13017,0.4572 0.13018,0.1397 0.36513,0.1397 0.23495,0 0.36512,-0.1397 0.13018,-0.1397 0.13018,-0.4572 v -1.22555 h 0.508 v 1.2446 q 0,0.48895 -0.2667,0.752475 -0.2667,0.263525 -0.73978,0.263525 z m 3.2401,-0.0381 v -2.2225 h 0.51435 v 2.2225 z m 3.64173,0 v -2.2225 h 0.51435 v 1.8034 h 1.11443 v 0.4191 z m 3.64332,0 v -2.2225 h 1.00965 q 0.36195,0 0.63817,0.1397 0.27623,0.136525 0.4318,0.384175 0.15558,0.24765 0.15558,0.587375 0,0.33655 -0.15558,0.587375 -0.15557,0.24765 -0.4318,0.38735 -0.27622,0.136525 -0.63817,0.136525 z m 0.51435,-0.422275 h 0.4699 q 0.22225,0 0.38417,-0.08255 0.1651,-0.08573 0.254,-0.2413 0.0921,-0.155575 0.0921,-0.365125 0,-0.212725 -0.0921,-0.365125 -0.0889,-0.155575 -0.254,-0.238125 -0.16192,-0.08572 -0.38417,-0.08572 h -0.4699 z"
         id="text10"
         style="font-weight:bold;font-size:3.175px;font-family:Montserrat;-inkscape-font-specification:'Montserrat Bold';letter-spacing:-0.0238125px;fill:#1a1a1a;stroke-width:0.264583"
         aria-label="B  U  I   L  D" /><path
         d="m 154.76442,51.288699 q -0.25717,0 -0.47942,-0.08255 -0.21908,-0.08573 -0.381,-0.2413 -0.16193,-0.155575 -0.254,-0.365125 -0.0889,-0.20955 -0.0889,-0.460375 0,-0.250825 0.0889,-0.460375 0.0921,-0.20955 0.254,-0.365125 0.1651,-0.155575 0.38417,-0.238125 0.21908,-0.08573 0.47943,-0.08573 0.28892,0 0.5207,0.1016 0.23495,0.09842 0.3937,0.2921 l -0.3302,0.3048 q -0.1143,-0.130175 -0.254,-0.193675 -0.1397,-0.06668 -0.3048,-0.06668 -0.15558,0 -0.28575,0.0508 -0.13018,0.0508 -0.22543,0.14605 -0.0953,0.09525 -0.14922,0.225425 -0.0508,0.130175 -0.0508,0.288925 0,0.15875 0.0508,0.288925 0.054,0.130175 0.14922,0.225425 0.0952,0.09525 0.22543,0.14605 0.13017,0.0508 0.28575,0.0508 0.1651,0 0.3048,-0.0635 0.1397,-0.06668 0.254,-0.200025 l 0.3302,0.3048 q -0.15875,0.193675 -0.3937,0.295275 -0.23178,0.1016 -0.52388,0.1016 z m 4.91491,0 q -0.26352,0 -0.48895,-0.08573 -0.22225,-0.08572 -0.38735,-0.2413 -0.16192,-0.155575 -0.254,-0.365125 -0.0889,-0.20955 -0.0889,-0.4572 0,-0.24765 0.0889,-0.4572 0.0921,-0.20955 0.25718,-0.365125 0.1651,-0.155575 0.38735,-0.2413 0.22225,-0.08573 0.4826,-0.08573 0.26352,0 0.4826,0.08573 0.22225,0.08572 0.38417,0.2413 0.1651,0.155575 0.25718,0.365125 0.0921,0.206375 0.0921,0.4572 0,0.24765 -0.0921,0.460375 -0.0921,0.20955 -0.25718,0.365125 -0.16192,0.1524 -0.38417,0.238125 -0.21908,0.08573 -0.47943,0.08573 z m -0.003,-0.43815 q 0.14922,0 0.27305,-0.0508 0.127,-0.0508 0.22225,-0.14605 0.0952,-0.09525 0.14605,-0.225425 0.054,-0.130175 0.054,-0.288925 0,-0.15875 -0.054,-0.288925 -0.0508,-0.130175 -0.14605,-0.225425 -0.0921,-0.09525 -0.21908,-0.14605 -0.127,-0.0508 -0.27622,-0.0508 -0.14923,0 -0.27623,0.0508 -0.12382,0.0508 -0.21907,0.14605 -0.0952,0.09525 -0.14923,0.225425 -0.0508,0.130175 -0.0508,0.288925 0,0.155575 0.0508,0.288925 0.054,0.130175 0.14605,0.225425 0.0952,0.09525 0.22225,0.14605 0.127,0.0508 0.27623,0.0508 z m 4.20371,0.40005 v -2.2225 h 0.42545 l 1.31127,1.6002 h -0.20637 v -1.6002 h 0.508 v 2.2225 h -0.42228 l -1.31445,-1.6002 h 0.20638 v 1.6002 z m 5.02127,0.0381 q -0.2667,0 -0.51118,-0.06985 -0.24447,-0.07303 -0.3937,-0.187325 l 0.17463,-0.38735 q 0.14287,0.1016 0.33655,0.168275 0.19685,0.0635 0.39687,0.0635 0.1524,0 0.24448,-0.02857 0.0953,-0.03175 0.1397,-0.08573 0.0445,-0.05398 0.0445,-0.123825 0,-0.0889 -0.0699,-0.1397 -0.0699,-0.05397 -0.18415,-0.08572 -0.1143,-0.03493 -0.254,-0.0635 -0.13653,-0.03175 -0.27623,-0.0762 -0.13652,-0.04445 -0.25082,-0.1143 -0.1143,-0.06985 -0.18733,-0.18415 -0.0699,-0.1143 -0.0699,-0.2921 0,-0.1905 0.1016,-0.346075 0.10478,-0.15875 0.31115,-0.250825 0.20955,-0.09525 0.52388,-0.09525 0.20955,0 0.41275,0.0508 0.2032,0.04763 0.35877,0.14605 l -0.15875,0.390525 q -0.15557,-0.0889 -0.31115,-0.130175 -0.15557,-0.04445 -0.3048,-0.04445 -0.14922,0 -0.24447,0.03493 -0.0952,0.03493 -0.13653,0.09208 -0.0413,0.05397 -0.0413,0.127 0,0.08573 0.0699,0.1397 0.0699,0.0508 0.18415,0.08255 0.1143,0.03175 0.25082,0.0635 0.1397,0.03175 0.27623,0.07303 0.1397,0.04127 0.254,0.111125 0.1143,0.06985 0.18415,0.18415 0.073,0.1143 0.073,0.288925 0,0.187325 -0.10477,0.3429 -0.10478,0.155575 -0.31433,0.250825 -0.20637,0.09525 -0.52387,0.09525 z m 4.00844,0 q -0.47307,0 -0.73977,-0.263525 -0.2667,-0.263525 -0.2667,-0.752475 v -1.2446 h 0.51435 v 1.22555 q 0,0.3175 0.13017,0.4572 0.13018,0.1397 0.36513,0.1397 0.23495,0 0.36512,-0.1397 0.13018,-0.1397 0.13018,-0.4572 v -1.22555 h 0.508 v 1.2446 q 0,0.48895 -0.2667,0.752475 -0.2667,0.263525 -0.73978,0.263525 z m 4.11481,-0.0381 v -2.2225 h 0.51435 v 1.8034 h 1.11443 v 0.4191 z m 4.10369,0 v -1.8034 h -0.7112 v -0.4191 h 1.93675 v 0.4191 h -0.7112 v 1.8034 z m 2.9353,0 0.9906,-2.2225 h 0.508 l 0.99377,2.2225 H 186.016 l -0.8128,-1.96215 h 0.2032 l -0.81597,1.96215 z m 0.4953,-0.47625 0.13652,-0.390525 h 1.143 l 0.1397,0.390525 z m 5.28956,0.47625 v -1.8034 h -0.7112 v -0.4191 h 1.93675 v 0.4191 h -0.7112 v 1.8034 z m 3.22739,0 v -2.2225 h 0.51435 v 2.2225 z m 4.72123,0.0381 q -0.26352,0 -0.48895,-0.08573 -0.22225,-0.08572 -0.38735,-0.2413 -0.16192,-0.155575 -0.254,-0.365125 -0.0889,-0.20955 -0.0889,-0.4572 0,-0.24765 0.0889,-0.4572 0.0921,-0.20955 0.25718,-0.365125 0.1651,-0.155575 0.38735,-0.2413 0.22225,-0.08573 0.4826,-0.08573 0.26352,0 0.4826,0.08573 0.22225,0.08572 0.38417,0.2413 0.1651,0.155575 0.25718,0.365125 0.0921,0.206375 0.0921,0.4572 0,0.24765 -0.0921,0.460375 -0.0921,0.20955 -0.25718,0.365125 -0.16192,0.1524 -0.38417,0.238125 -0.21908,0.08573 -0.47943,0.08573 z m -0.003,-0.43815 q 0.14922,0 0.27305,-0.0508 0.127,-0.0508 0.22225,-0.14605 0.0952,-0.09525 0.14605,-0.225425 0.054,-0.130175 0.054,-0.288925 0,-0.15875 -0.054,-0.288925 -0.0508,-0.130175 -0.14605,-0.225425 -0.0921,-0.09525 -0.21908,-0.14605 -0.127,-0.0508 -0.27622,-0.0508 -0.14923,0 -0.27623,0.0508 -0.12382,0.0508 -0.21907,0.14605 -0.0953,0.09525 -0.14923,0.225425 -0.0508,0.130175 -0.0508,0.288925 0,0.155575 0.0508,0.288925 0.054,0.130175 0.14605,0.225425 0.0952,0.09525 0.22225,0.14605 0.127,0.0508 0.27623,0.0508 z m 4.20371,0.40005 v -2.2225 h 0.42545 l 1.31127,1.6002 h -0.20637 v -1.6002 h 0.508 v 2.2225 h -0.42228 l -1.31445,-1.6002 h 0.20638 v 1.6002 z"
         id="text11"
         style="font-weight:bold;font-size:3.175px;font-family:Montserrat;-inkscape-font-specification:'Montserrat Bold';letter-spacing:-0.0238125px;fill:#1a1a1a;stroke-width:0.264583"
         aria-label="C   O   N  S  U   L  T  A   T  I   O   N" /><path
         id="path11"
         style="fill:#550000;stroke-width:0.0827668"
         d="m 124.22124,50.148872 a 0.42764151,0.42764151 0 0 1 -0.42764,0.427642 0.42764151,0.42764151 0 0 1 -0.42764,-0.427642 0.42764151,0.42764151 0 0 1 0.42764,-0.427641 0.42764151,0.42764151 0 0 1 0.42764,0.427641 z" /><path
         id="path11-5"
         style="fill:#550000;stroke-width:0.0827668"
         d="m 150.16583,50.139347 a 0.42764151,0.42764151 0 0 1 -0.42764,0.427642 0.42764151,0.42764151 0 0 1 -0.42764,-0.427642 0.42764151,0.42764151 0 0 1 0.42764,-0.427641 0.42764151,0.42764151 0 0 1 0.42764,0.427641 z" /></g></g></svg>
